<svg width="28" height="28" viewBox="0 0 28 28" fill="none" xmlns="http://www.w3.org/2000/svg">
<mask id="mask0_0_211" style="mask-type:alpha" maskUnits="userSpaceOnUse" x="0" y="0" width="28" height="28">
<rect width="28" height="28" fill="#D9D9D9"/>
</mask>
<g mask="url(#mask0_0_211)">
<path d="M6.19229 25.0833C5.60293 25.0833 5.10409 24.8791 4.69575 24.4708C4.28742 24.0625 4.08325 23.5636 4.08325 22.9742V7.359C4.08325 6.76964 4.28742 6.27079 4.69575 5.86246C5.10409 5.45412 5.60293 5.24996 6.19229 5.24996H7.80754V2.78217H9.60246V5.24996H18.4423V2.78217H20.1923V5.24996H21.8075C22.3969 5.24996 22.8958 5.45412 23.3041 5.86246C23.7124 6.27079 23.9166 6.76964 23.9166 7.359V22.9742C23.9166 23.5636 23.7124 24.0625 23.3041 24.4708C22.8958 24.8791 22.3969 25.0833 21.8075 25.0833H6.19229ZM6.19229 23.3333H21.8075C21.8974 23.3333 21.9796 23.2959 22.0543 23.221C22.1292 23.1463 22.1666 23.0641 22.1666 22.9742V12.0257H5.83325V22.9742C5.83325 23.0641 5.87068 23.1463 5.94554 23.221C6.02021 23.2959 6.10246 23.3333 6.19229 23.3333ZM5.83325 10.2757H22.1666V7.359C22.1666 7.26917 22.1292 7.18691 22.0543 7.11225C21.9796 7.03739 21.8974 6.99996 21.8075 6.99996H6.19229C6.10246 6.99996 6.02021 7.03739 5.94554 7.11225C5.87068 7.18691 5.83325 7.26917 5.83325 7.359V10.2757ZM13.9999 16.4231C13.7143 16.4231 13.4708 16.3225 13.2696 16.1212C13.0685 15.9202 12.968 15.6767 12.968 15.3909C12.968 15.1053 13.0685 14.8618 13.2696 14.6606C13.4708 14.4595 13.7143 14.359 13.9999 14.359C14.2856 14.359 14.529 14.4595 14.7303 14.6606C14.9313 14.8618 15.0318 15.1053 15.0318 15.3909C15.0318 15.6767 14.9313 15.9202 14.7303 16.1212C14.529 16.3225 14.2856 16.4231 13.9999 16.4231ZM9.33325 16.4231C9.04761 16.4231 8.80417 16.3225 8.60292 16.1212C8.40186 15.9202 8.30134 15.6767 8.30134 15.3909C8.30134 15.1053 8.40186 14.8618 8.60292 14.6606C8.80417 14.4595 9.04761 14.359 9.33325 14.359C9.61889 14.359 9.86234 14.4595 10.0636 14.6606C10.2646 14.8618 10.3652 15.1053 10.3652 15.3909C10.3652 15.6767 10.2646 15.9202 10.0636 16.1212C9.86234 16.3225 9.61889 16.4231 9.33325 16.4231ZM18.6666 16.4231C18.3809 16.4231 18.1375 16.3225 17.9363 16.1212C17.7352 15.9202 17.6347 15.6767 17.6347 15.3909C17.6347 15.1053 17.7352 14.8618 17.9363 14.6606C18.1375 14.4595 18.3809 14.359 18.6666 14.359C18.9522 14.359 19.1957 14.4595 19.3969 14.6606C19.598 14.8618 19.6985 15.1053 19.6985 15.3909C19.6985 15.6767 19.598 15.9202 19.3969 16.1212C19.1957 16.3225 18.9522 16.4231 18.6666 16.4231ZM13.9999 21C13.7143 21 13.4708 20.8993 13.2696 20.6981C13.0685 20.497 12.968 20.2537 12.968 19.968C12.968 19.6822 13.0685 19.4388 13.2696 19.2377C13.4708 19.0365 13.7143 18.9358 13.9999 18.9358C14.2856 18.9358 14.529 19.0365 14.7303 19.2377C14.9313 19.4388 15.0318 19.6822 15.0318 19.968C15.0318 20.2537 14.9313 20.497 14.7303 20.6981C14.529 20.8993 14.2856 21 13.9999 21ZM9.33325 21C9.04761 21 8.80417 20.8993 8.60292 20.6981C8.40186 20.497 8.30134 20.2537 8.30134 19.968C8.30134 19.6822 8.40186 19.4388 8.60292 19.2377C8.80417 19.0365 9.04761 18.9358 9.33325 18.9358C9.61889 18.9358 9.86234 19.0365 10.0636 19.2377C10.2646 19.4388 10.3652 19.6822 10.3652 19.968C10.3652 20.2537 10.2646 20.497 10.0636 20.6981C9.86234 20.8993 9.61889 21 9.33325 21ZM18.6666 21C18.3809 21 18.1375 20.8993 17.9363 20.6981C17.7352 20.497 17.6347 20.2537 17.6347 19.968C17.6347 19.6822 17.7352 19.4388 17.9363 19.2377C18.1375 19.0365 18.3809 18.9358 18.6666 18.9358C18.9522 18.9358 19.1957 19.0365 19.3969 19.2377C19.598 19.4388 19.6985 19.6822 19.6985 19.968C19.6985 20.2537 19.598 20.497 19.3969 20.6981C19.1957 20.8993 18.9522 21 18.6666 21Z" fill="#E3F7EC"/>
</g>
</svg>
