<svg width="28" height="28" viewBox="0 0 28 28" fill="none" xmlns="http://www.w3.org/2000/svg">
<mask id="mask0_0_92" style="mask-type:alpha" maskUnits="userSpaceOnUse" x="0" y="0" width="28" height="28">
<rect width="28" height="28" fill="#D9D9D9"/>
</mask>
<g mask="url(#mask0_0_92)">
<path d="M6.19229 25.0834C5.60293 25.0834 5.10409 24.8792 4.69575 24.4708C4.28742 24.0625 4.08325 23.5637 4.08325 22.9743V7.35906C4.08325 6.7697 4.28742 6.27085 4.69575 5.86252C5.10409 5.45418 5.60293 5.25002 6.19229 5.25002H7.80754V2.78223H9.60246V5.25002H18.4423V2.78223H20.1923V5.25002H21.8075C22.3969 5.25002 22.8958 5.45418 23.3041 5.86252C23.7124 6.27085 23.9166 6.7697 23.9166 7.35906V22.9743C23.9166 23.5637 23.7124 24.0625 23.3041 24.4708C22.8958 24.8792 22.3969 25.0834 21.8075 25.0834H6.19229ZM6.19229 23.3334H21.8075C21.8974 23.3334 21.9796 23.2959 22.0543 23.2211C22.1292 23.1464 22.1666 23.0641 22.1666 22.9743V12.0257H5.83325V22.9743C5.83325 23.0641 5.87068 23.1464 5.94554 23.2211C6.02021 23.2959 6.10246 23.3334 6.19229 23.3334ZM5.83325 10.2757H22.1666V7.35906C22.1666 7.26923 22.1292 7.18698 22.0543 7.11231C21.9796 7.03745 21.8974 7.00002 21.8075 7.00002H6.19229C6.10246 7.00002 6.02021 7.03745 5.94554 7.11231C5.87068 7.18698 5.83325 7.26923 5.83325 7.35906V10.2757ZM13.9999 16.4232C13.7143 16.4232 13.4708 16.3226 13.2696 16.1213C13.0685 15.9203 12.968 15.6768 12.968 15.391C12.968 15.1053 13.0685 14.8619 13.2696 14.6606C13.4708 14.4596 13.7143 14.3591 13.9999 14.3591C14.2856 14.3591 14.529 14.4596 14.7303 14.6606C14.9313 14.8619 15.0318 15.1053 15.0318 15.391C15.0318 15.6768 14.9313 15.9203 14.7303 16.1213C14.529 16.3226 14.2856 16.4232 13.9999 16.4232ZM9.33325 16.4232C9.04761 16.4232 8.80417 16.3226 8.60292 16.1213C8.40186 15.9203 8.30134 15.6768 8.30134 15.391C8.30134 15.1053 8.40186 14.8619 8.60292 14.6606C8.80417 14.4596 9.04761 14.3591 9.33325 14.3591C9.61889 14.3591 9.86234 14.4596 10.0636 14.6606C10.2646 14.8619 10.3652 15.1053 10.3652 15.391C10.3652 15.6768 10.2646 15.9203 10.0636 16.1213C9.86234 16.3226 9.61889 16.4232 9.33325 16.4232ZM18.6666 16.4232C18.3809 16.4232 18.1375 16.3226 17.9363 16.1213C17.7352 15.9203 17.6347 15.6768 17.6347 15.391C17.6347 15.1053 17.7352 14.8619 17.9363 14.6606C18.1375 14.4596 18.3809 14.3591 18.6666 14.3591C18.9522 14.3591 19.1957 14.4596 19.3969 14.6606C19.598 14.8619 19.6985 15.1053 19.6985 15.391C19.6985 15.6768 19.598 15.9203 19.3969 16.1213C19.1957 16.3226 18.9522 16.4232 18.6666 16.4232ZM13.9999 21C13.7143 21 13.4708 20.8994 13.2696 20.6981C13.0685 20.4971 12.968 20.2537 12.968 19.9681C12.968 19.6823 13.0685 19.4388 13.2696 19.2378C13.4708 19.0365 13.7143 18.9359 13.9999 18.9359C14.2856 18.9359 14.529 19.0365 14.7303 19.2378C14.9313 19.4388 15.0318 19.6823 15.0318 19.9681C15.0318 20.2537 14.9313 20.4971 14.7303 20.6981C14.529 20.8994 14.2856 21 13.9999 21ZM9.33325 21C9.04761 21 8.80417 20.8994 8.60292 20.6981C8.40186 20.4971 8.30134 20.2537 8.30134 19.9681C8.30134 19.6823 8.40186 19.4388 8.60292 19.2378C8.80417 19.0365 9.04761 18.9359 9.33325 18.9359C9.61889 18.9359 9.86234 19.0365 10.0636 19.2378C10.2646 19.4388 10.3652 19.6823 10.3652 19.9681C10.3652 20.2537 10.2646 20.4971 10.0636 20.6981C9.86234 20.8994 9.61889 21 9.33325 21ZM18.6666 21C18.3809 21 18.1375 20.8994 17.9363 20.6981C17.7352 20.4971 17.6347 20.2537 17.6347 19.9681C17.6347 19.6823 17.7352 19.4388 17.9363 19.2378C18.1375 19.0365 18.3809 18.9359 18.6666 18.9359C18.9522 18.9359 19.1957 19.0365 19.3969 19.2378C19.598 19.4388 19.6985 19.6823 19.6985 19.9681C19.6985 20.2537 19.598 20.4971 19.3969 20.6981C19.1957 20.8994 18.9522 21 18.6666 21Z" fill="#E3F7EC"/>
</g>
</svg>
