<svg width="144" height="40" viewBox="0 0 144 40" fill="none" xmlns="http://www.w3.org/2000/svg">
<rect width="40" height="40" rx="4" fill="#344E41"/>
<g clip-path="url(#clip0_0_13)">
<path d="M23.75 12.5H16.25C14.1789 12.5 12.5 14.1789 12.5 16.25V23.75C12.5 25.8211 14.1789 27.5 16.25 27.5H23.75C25.8211 27.5 27.5 25.8211 27.5 23.75V16.25C27.5 14.1789 25.8211 12.5 23.75 12.5Z" stroke="#E3F7EC" stroke-width="1.5" stroke-linecap="round" stroke-linejoin="round"/>
<path d="M23 19.5277C23.0926 20.1519 22.986 20.7894 22.6953 21.3495C22.4047 21.9096 21.9449 22.3638 21.3812 22.6475C20.8176 22.9312 20.1789 23.0299 19.5559 22.9297C18.9329 22.8294 18.3573 22.5353 17.9112 22.0891C17.465 21.6429 17.1708 21.0674 17.0706 20.4444C16.9703 19.8214 17.0691 19.1826 17.3528 18.619C17.6365 18.0554 18.0907 17.5955 18.6508 17.3049C19.2109 17.0143 19.8483 16.9077 20.4725 17.0002C21.1092 17.0946 21.6987 17.3913 22.1538 17.8465C22.6089 18.3016 22.9056 18.891 23 19.5277Z" stroke="#E3F7EC" stroke-width="1.5" stroke-linecap="round" stroke-linejoin="round"/>
<path d="M24.125 15.875H24.1325" stroke="#E3F7EC" stroke-width="1.5" stroke-linecap="round" stroke-linejoin="round"/>
</g>
<rect x="52" width="40" height="40" rx="4" fill="#344E41"/>
<g clip-path="url(#clip1_0_13)">
<path d="M76.5 12.5H74.25C73.2554 12.5 72.3016 12.8951 71.5983 13.5983C70.8951 14.3016 70.5 15.2554 70.5 16.25V18.5H68.25V21.5H70.5V27.5H73.5V21.5H75.75L76.5 18.5H73.5V16.25C73.5 16.0511 73.579 15.8603 73.7197 15.7197C73.8603 15.579 74.0511 15.5 74.25 15.5H76.5V12.5Z" stroke="#E3F7EC" stroke-width="1.5" stroke-linecap="round" stroke-linejoin="round"/>
</g>
<rect x="104" width="40" height="40" rx="4" fill="#344E41"/>
<path d="M116.875 23.75C116.351 21.2774 116.351 18.7225 116.875 16.25C116.944 15.9989 117.077 15.7701 117.261 15.586C117.445 15.4019 117.674 15.2688 117.925 15.2C121.948 14.5336 126.053 14.5336 130.075 15.2C130.326 15.2688 130.555 15.4019 130.739 15.586C130.924 15.7701 131.057 15.9989 131.125 16.25C131.649 18.7225 131.649 21.2774 131.125 23.75C131.057 24.0011 130.924 24.2299 130.739 24.414C130.555 24.5981 130.326 24.7312 130.075 24.8C126.053 25.4665 121.948 25.4665 117.925 24.8C117.674 24.7312 117.445 24.5981 117.261 24.414C117.077 24.2299 116.944 24.0011 116.875 23.75Z" stroke="#E3F7EC" stroke-width="1.5" stroke-linecap="round" stroke-linejoin="round"/>
<path d="M122.5 22.25L126.25 20L122.5 17.75V22.25Z" stroke="#E3F7EC" stroke-width="1.5" stroke-linecap="round" stroke-linejoin="round"/>
<defs>
<clipPath id="clip0_0_13">
<rect width="18" height="18" fill="white" transform="translate(11 11)"/>
</clipPath>
<clipPath id="clip1_0_13">
<rect width="18" height="18" fill="white" transform="translate(63 11)"/>
</clipPath>
</defs>
</svg>
